<svg xmlns="http://www.w3.org/2000/svg" xmlns:xlink="http://www.w3.org/1999/xlink" width="500" zoomAndPan="magnify" viewBox="0 0 375 374.999991" height="500" preserveAspectRatio="xMidYMid meet" version="1.0"><defs><clipPath id="id1"><path d="M 162 46.640625 L 271 46.640625 L 271 117 L 162 117 Z M 162 46.640625 " clip-rule="nonzero"/></clipPath><clipPath id="id2"><path d="M 173 322 L 352 322 L 352 328.640625 L 173 328.640625 Z M 173 322 " clip-rule="nonzero"/></clipPath></defs><path fill="#bbd9f4" d="M 275.191406 195.949219 L 343.390625 195.949219 C 351.429688 195.949219 357.945312 189.425781 357.945312 181.378906 L 357.945312 147.53125 C 357.945312 139.484375 351.429688 132.960938 343.390625 132.960938 L 275.191406 132.960938 C 267.152344 132.960938 260.636719 139.484375 260.636719 147.53125 L 260.636719 181.378906 C 260.636719 189.425781 267.152344 195.949219 275.191406 195.949219 Z M 275.191406 195.949219 " fill-opacity="1" fill-rule="nonzero"/><path fill="#bbd9f4" d="M 343.558594 190.457031 L 343.558594 215.523438 L 323.742188 190.457031 Z M 343.558594 190.457031 " fill-opacity="1" fill-rule="nonzero"/><path fill="#8345ff" d="M 182.683594 190.398438 L 205.601562 286.457031 L 270.195312 299.222656 L 267.597656 320.289062 L 181.699219 322.5625 L 145.078125 228.40625 Z M 182.683594 190.398438 " fill-opacity="1" fill-rule="nonzero"/><g clip-path="url(#id1)"><path fill="#bbd9f4" d="M 254.152344 116.066406 L 178.980469 116.066406 C 170.117188 116.066406 162.9375 108.878906 162.9375 100.007812 L 162.9375 62.699219 C 162.9375 53.832031 170.117188 46.640625 178.976562 46.640625 L 254.152344 46.640625 C 263.015625 46.640625 270.195312 53.832031 270.195312 62.699219 L 270.195312 100.007812 C 270.195312 108.878906 263.011719 116.066406 254.152344 116.066406 Z M 254.152344 116.066406 " fill-opacity="1" fill-rule="nonzero"/></g><path fill="#bbd9f4" d="M 178.796875 110.015625 L 173.75 132.800781 L 197.996094 110.015625 Z M 178.796875 110.015625 " fill-opacity="1" fill-rule="nonzero"/><path fill="#261e3f" d="M 80.683594 152.214844 C 63.1875 175.320312 28.71875 168.839844 10.707031 192.714844 C 2.773438 203.230469 0.246094 217.625 4.121094 230.21875 C 7.761719 242.046875 18.375 252.644531 30.730469 252.175781 C 37.089844 251.933594 42.964844 248.90625 48.578125 245.902344 C 63.855469 237.722656 79.152344 229.082031 91.578125 216.996094 C 109.335938 199.714844 120.34375 175.652344 121.808594 150.902344 C 122.375 141.3125 114.621094 112.933594 99.035156 121.714844 C 97.417969 122.625 96.226562 124.128906 95.183594 125.664062 C 89.507812 133.980469 86.800781 144.097656 80.742188 152.136719 C 80.722656 152.164062 80.703125 152.1875 80.683594 152.214844 Z M 80.683594 152.214844 " fill-opacity="1" fill-rule="nonzero"/><path fill="#8345ff" d="M 116.789062 228.808594 L 123.851562 228.808594 C 138.101562 228.808594 149.761719 217.136719 149.761719 202.871094 L 149.761719 192.195312 C 149.761719 177.929688 138.101562 166.257812 123.851562 166.257812 L 116.789062 166.257812 C 102.539062 166.257812 90.878906 177.929688 90.878906 192.195312 L 90.878906 202.871094 C 90.878906 217.136719 102.539062 228.808594 116.789062 228.808594 Z M 116.789062 228.808594 " fill-opacity="1" fill-rule="nonzero"/><path fill="#8345ff" d="M 117.007812 318.707031 C 117.007812 318.707031 30.109375 318.707031 30.085938 318.707031 C 21.773438 318.707031 18.023438 309.449219 18.152344 302.515625 C 18.167969 301.722656 18.1875 300.925781 18.207031 300.132812 C 27.152344 270.292969 31.753906 239.554688 40.746094 209.535156 C 44.773438 195.773438 61.125 185.550781 75.398438 184.34375 L 157.75 177.386719 C 168.21875 176.503906 177.75 181.890625 182.683594 190.398438 C 182.476562 190.589844 182.320312 190.859375 182.261719 191.210938 C 180.960938 198.660156 176.921875 205.078125 173.449219 211.660156 C 170.191406 217.839844 167.859375 224.378906 166.84375 231.308594 C 165.8125 238.332031 171.265625 246.601562 169.664062 253.488281 C 163.921875 278.1875 152 286.71875 148.421875 297.007812 C 143.785156 296.277344 117 294.207031 117 294.207031 C 117 304.132812 117.042969 309.109375 117.007812 318.707031 Z M 117.007812 318.707031 " fill-opacity="1" fill-rule="nonzero"/><path fill="#ffffff" d="M 122.066406 232.09375 C 130.632812 232.09375 137.644531 225.074219 137.644531 216.5 L 137.644531 182.878906 C 137.644531 175.613281 131.761719 169.722656 124.5 169.722656 L 119.628906 169.722656 C 112.371094 169.722656 106.488281 175.613281 106.488281 182.878906 L 106.488281 216.5 C 106.488281 225.074219 113.5 232.09375 122.066406 232.09375 Z M 122.066406 232.09375 " fill-opacity="1" fill-rule="nonzero"/><path fill="#261e3f" d="M 114.988281 291.132812 L 115.015625 290.820312 L 62.28125 286.101562 L 77.996094 220.777344 L 77.691406 220.703125 L 61.890625 286.378906 L 62.070312 286.394531 Z M 114.988281 291.132812 " fill-opacity="1" fill-rule="nonzero"/><path fill="#261e3f" d="M 167.125 262.839844 C 173.726562 245.453125 174.476562 229.839844 169.484375 213.710938 L 169.207031 213.796875 C 174.179688 229.859375 173.433594 245.414062 166.851562 262.734375 Z M 167.125 262.839844 " fill-opacity="1" fill-rule="nonzero"/><path fill="#261e3f" d="M 143.921875 100.351562 C 134.441406 101.066406 125.304688 102.300781 115.914062 103.445312 C 108.046875 104.402344 99.25 106.347656 94.738281 113.570312 C 87.675781 124.882812 90.355469 140.359375 97.371094 151.042969 C 102.296875 158.542969 110.3125 164.21875 119.222656 165.222656 C 128.132812 166.230469 137.703125 162.050781 142.128906 154.246094 C 147.066406 145.535156 144.933594 135.183594 147.417969 125.84375 C 149.335938 118.632812 156.539062 112.015625 152.746094 104.238281 C 152.082031 102.875 151.113281 101.609375 149.769531 100.914062 C 148.132812 100.070312 146.1875 100.183594 144.351562 100.320312 C 144.207031 100.328125 144.066406 100.339844 143.921875 100.351562 Z M 143.921875 100.351562 " fill-opacity="1" fill-rule="nonzero"/><path fill="#f8c208" d="M 106.03125 133.625 L 106.03125 180.921875 C 106.03125 187.921875 111.699219 193.597656 118.691406 193.597656 L 124.554688 193.597656 C 131.546875 193.597656 137.214844 187.921875 137.214844 180.921875 L 137.214844 136.5 L 121.621094 135.0625 Z M 106.03125 133.625 " fill-opacity="1" fill-rule="nonzero"/><path fill="#261e3f" d="M 121.800781 139.011719 L 121.800781 152.753906 C 121.800781 160.933594 128.421875 167.5625 136.59375 167.5625 L 137.394531 167.5625 L 137.394531 140.453125 Z M 121.800781 139.011719 " fill-opacity="1" fill-rule="nonzero"/><path fill="#f8c208" d="M 112.652344 133.722656 C 117.078125 130.578125 118.34375 130.257812 124.566406 125.144531 C 129.441406 121.140625 133.097656 116.210938 138.015625 112.328125 L 141.574219 116.578125 C 144.507812 120.078125 146.453125 124.300781 147.210938 128.808594 C 149.054688 139.757812 150.152344 159.308594 135.402344 162.425781 C 129.167969 163.746094 122.710938 161.734375 118.125 157.304688 C 112.902344 152.257812 108.894531 144.222656 106.085938 137.617188 C 107.539062 136.214844 111.023438 134.882812 112.652344 133.722656 Z M 112.652344 133.722656 " fill-opacity="1" fill-rule="nonzero"/><path fill="#ffffff" d="M 135.957031 148.75 L 128.027344 147.394531 C 127.679688 147.335938 127.367188 147.609375 127.382812 147.960938 C 127.417969 148.945312 127.859375 150.757812 130.425781 151.679688 C 134.542969 153.152344 135.953125 150.703125 136.382812 149.480469 C 136.5 149.15625 136.292969 148.808594 135.957031 148.75 Z M 135.957031 148.75 " fill-opacity="1" fill-rule="nonzero"/><path fill="#f8c208" d="M 96.4375 138.9375 C 96.4375 139.476562 96.492188 140.011719 96.597656 140.542969 C 96.703125 141.074219 96.859375 141.589844 97.066406 142.089844 C 97.269531 142.589844 97.523438 143.066406 97.824219 143.515625 C 98.125 143.964844 98.46875 144.382812 98.847656 144.765625 C 99.230469 145.148438 99.648438 145.488281 100.097656 145.789062 C 100.546875 146.089844 101.019531 146.34375 101.519531 146.550781 C 102.019531 146.757812 102.535156 146.914062 103.066406 147.019531 C 103.59375 147.125 104.128906 147.179688 104.671875 147.179688 C 105.210938 147.179688 105.746094 147.125 106.277344 147.019531 C 106.808594 146.914062 107.324219 146.757812 107.820312 146.550781 C 108.320312 146.34375 108.796875 146.089844 109.246094 145.789062 C 109.695312 145.488281 110.109375 145.148438 110.492188 144.765625 C 110.875 144.382812 111.214844 143.964844 111.515625 143.515625 C 111.816406 143.066406 112.070312 142.589844 112.277344 142.089844 C 112.484375 141.589844 112.640625 141.074219 112.746094 140.542969 C 112.851562 140.011719 112.90625 139.476562 112.90625 138.9375 C 112.90625 138.394531 112.851562 137.859375 112.746094 137.328125 C 112.640625 136.796875 112.484375 136.28125 112.277344 135.78125 C 112.070312 135.28125 111.816406 134.808594 111.515625 134.359375 C 111.214844 133.90625 110.875 133.492188 110.492188 133.109375 C 110.109375 132.726562 109.695312 132.382812 109.246094 132.082031 C 108.796875 131.78125 108.320312 131.527344 107.820312 131.320312 C 107.324219 131.113281 106.808594 130.957031 106.277344 130.851562 C 105.746094 130.746094 105.210938 130.695312 104.671875 130.695312 C 104.128906 130.695312 103.59375 130.746094 103.066406 130.851562 C 102.535156 130.957031 102.019531 131.113281 101.519531 131.320312 C 101.019531 131.527344 100.546875 131.78125 100.097656 132.082031 C 99.648438 132.382812 99.230469 132.726562 98.847656 133.109375 C 98.46875 133.492188 98.125 133.90625 97.824219 134.359375 C 97.523438 134.808594 97.269531 135.28125 97.066406 135.78125 C 96.859375 136.28125 96.703125 136.796875 96.597656 137.328125 C 96.492188 137.859375 96.4375 138.394531 96.4375 138.9375 Z M 96.4375 138.9375 " fill-opacity="1" fill-rule="nonzero"/><path fill="#261e3f" d="M 106.882812 142.054688 C 106.910156 142.054688 106.941406 142.050781 106.96875 142.046875 C 107.4375 142 107.773438 141.582031 107.726562 141.117188 C 107.421875 138.109375 104.71875 135.515625 101.699219 135.339844 C 101.230469 135.316406 100.832031 135.667969 100.804688 136.136719 C 100.777344 136.605469 101.132812 137.003906 101.601562 137.03125 C 103.824219 137.160156 105.816406 139.070312 106.042969 141.289062 C 106.085938 141.726562 106.453125 142.054688 106.882812 142.054688 Z M 106.882812 142.054688 " fill-opacity="1" fill-rule="nonzero"/><path fill="#8280fb" d="M 102.167969 113.683594 L 102.167969 128.988281 L 105.136719 128.988281 L 105.136719 113.683594 C 105.136719 109.375 107.757812 105.679688 111.492188 104.105469 C 112.730469 103.582031 114.09375 103.292969 115.523438 103.292969 L 117.167969 103.292969 C 118.21875 103.164062 119.261719 103.035156 120.304688 102.90625 C 120.21875 102.238281 119.914062 101.640625 119.460938 101.1875 C 118.921875 100.652344 118.179688 100.320312 117.359375 100.320312 L 115.523438 100.320312 C 111.035156 100.320312 107.0625 102.535156 104.644531 105.933594 C 103.082031 108.121094 102.167969 110.792969 102.167969 113.683594 Z M 102.167969 113.683594 " fill-opacity="1" fill-rule="nonzero"/><path fill="#8280fb" d="M 133.253906 158.863281 L 133.382812 156.785156 L 121.175781 156.011719 C 118.90625 155.867188 116.824219 154.855469 115.316406 153.152344 L 106.109375 142.785156 L 104.554688 144.167969 L 113.761719 154.535156 C 115.636719 156.648438 118.222656 157.910156 121.042969 158.089844 Z M 133.253906 158.863281 " fill-opacity="1" fill-rule="nonzero"/><path fill="#261e3f" d="M 133.527344 154.796875 C 133.167969 154.90625 132.839844 155.078125 132.550781 155.316406 C 132.257812 155.554688 132.023438 155.839844 131.84375 156.167969 C 131.664062 156.5 131.554688 156.855469 131.519531 157.230469 C 131.480469 157.605469 131.515625 157.972656 131.621094 158.332031 C 131.730469 158.695312 131.902344 159.019531 132.140625 159.3125 C 132.378906 159.605469 132.664062 159.839844 132.996094 160.019531 C 133.324219 160.199219 133.679688 160.304688 134.054688 160.34375 C 134.425781 160.382812 134.792969 160.347656 135.15625 160.238281 C 135.515625 160.132812 135.84375 159.957031 136.132812 159.722656 C 136.425781 159.484375 136.660156 159.199219 136.839844 158.867188 C 137.019531 158.535156 137.125 158.183594 137.164062 157.808594 C 137.203125 157.433594 137.167969 157.0625 137.058594 156.703125 C 136.953125 156.34375 136.78125 156.015625 136.542969 155.722656 C 136.304688 155.433594 136.019531 155.195312 135.6875 155.015625 C 135.355469 154.839844 135.003906 154.730469 134.628906 154.691406 C 134.253906 154.652344 133.886719 154.6875 133.527344 154.796875 Z M 133.527344 154.796875 " fill-opacity="1" fill-rule="nonzero"/><path fill="#8280fb" d="M 100.550781 127.511719 C 99.867188 127.71875 99.210938 127.988281 98.582031 128.320312 C 97.953125 128.652344 97.363281 129.046875 96.8125 129.496094 C 96.257812 129.945312 95.753906 130.445312 95.300781 130.996094 C 94.847656 131.546875 94.453125 132.132812 94.113281 132.761719 C 93.777344 133.390625 93.503906 134.042969 93.292969 134.726562 C 93.085938 135.40625 92.945312 136.101562 92.871094 136.8125 C 92.796875 137.519531 92.796875 138.230469 92.863281 138.941406 C 92.929688 139.648438 93.066406 140.34375 93.269531 141.027344 C 93.476562 141.710938 93.742188 142.367188 94.078125 143 C 94.410156 143.628906 94.800781 144.21875 95.253906 144.773438 C 95.703125 145.324219 96.199219 145.828125 96.75 146.28125 C 97.300781 146.738281 97.886719 147.132812 98.511719 147.472656 C 99.140625 147.808594 99.792969 148.085938 100.476562 148.292969 C 101.15625 148.503906 101.851562 148.644531 102.558594 148.71875 C 103.265625 148.789062 103.976562 148.792969 104.683594 148.726562 C 105.394531 148.65625 106.089844 148.523438 106.773438 148.316406 C 107.453125 148.113281 108.109375 147.84375 108.738281 147.507812 C 109.367188 147.175781 109.960938 146.785156 110.511719 146.332031 C 111.0625 145.882812 111.566406 145.382812 112.019531 144.835938 C 112.472656 144.285156 112.871094 143.695312 113.207031 143.070312 C 113.546875 142.441406 113.820312 141.785156 114.027344 141.105469 C 114.238281 140.421875 114.378906 139.726562 114.449219 139.019531 C 114.523438 138.308594 114.527344 137.601562 114.457031 136.890625 C 114.390625 136.179688 114.253906 135.484375 114.050781 134.800781 C 113.847656 134.117188 113.578125 133.460938 113.246094 132.832031 C 112.910156 132.203125 112.519531 131.609375 112.070312 131.058594 C 111.621094 130.503906 111.121094 130 110.570312 129.546875 C 110.023438 129.09375 109.433594 128.695312 108.808594 128.359375 C 108.183594 128.019531 107.527344 127.746094 106.847656 127.535156 C 106.167969 127.328125 105.472656 127.1875 104.761719 127.113281 C 104.054688 127.039062 103.347656 127.039062 102.636719 127.105469 C 101.929688 127.171875 101.230469 127.308594 100.550781 127.511719 Z M 100.550781 127.511719 " fill-opacity="1" fill-rule="nonzero"/><path fill="#cacafc" d="M 103.671875 145.566406 C 104.394531 145.566406 105.132812 145.460938 105.859375 145.242188 C 109.894531 144.03125 112.195312 139.761719 110.988281 135.71875 C 110.402344 133.761719 109.089844 132.148438 107.292969 131.179688 C 105.496094 130.210938 103.429688 129.996094 101.476562 130.585938 C 97.4375 131.792969 95.136719 136.066406 96.34375 140.109375 C 97.335938 143.421875 100.382812 145.566406 103.671875 145.566406 Z M 103.675781 131.167969 C 104.777344 131.167969 105.867188 131.441406 106.863281 131.980469 C 108.449219 132.835938 109.605469 134.253906 110.121094 135.980469 C 111.183594 139.542969 109.15625 143.308594 105.597656 144.375 C 102.039062 145.4375 98.28125 143.410156 97.214844 139.847656 C 96.148438 136.285156 98.175781 132.523438 101.734375 131.457031 C 102.375 131.261719 103.027344 131.167969 103.675781 131.167969 Z M 103.675781 131.167969 " fill-opacity="1" fill-rule="nonzero"/><path fill="#f5c004" d="M 118.835938 291.902344 C 131.140625 294.363281 162.496094 296.1875 174.453125 299.613281 C 176.609375 300.226562 178.761719 300.957031 180.917969 301.789062 C 188.152344 304.59375 195.226562 308.574219 201.007812 313.425781 C 201.835938 314.109375 203.6875 315.820312 204.039062 316.933594 C 204.042969 316.960938 204.058594 316.996094 204.0625 317.023438 C 204.21875 317.59375 203.5625 318.003906 203.066406 317.660156 C 197.070312 313.402344 190.378906 310.109375 183.355469 307.992188 C 182.980469 307.875 182.601562 308.074219 182.496094 308.433594 C 182.394531 308.792969 182.628906 309.1875 183.007812 309.300781 C 190.320312 311.5 197.277344 315.023438 203.441406 319.605469 C 203.6875 319.78125 203.769531 320.105469 203.660156 320.375 C 203.574219 320.578125 203.472656 320.789062 203.371094 320.996094 C 203.203125 321.316406 202.777344 321.414062 202.4375 321.203125 C 196.847656 317.445312 190.070312 314.390625 181.929688 311.945312 C 181.554688 311.828125 181.175781 312.03125 181.070312 312.402344 C 180.96875 312.761719 181.207031 313.140625 181.582031 313.257812 C 189.546875 315.664062 196.175781 318.648438 201.636719 322.300781 C 201.976562 322.515625 202.042969 322.96875 201.78125 323.253906 C 201.492188 323.570312 201.183594 323.863281 200.855469 324.136719 C 200.660156 324.3125 200.359375 324.320312 200.128906 324.175781 C 194.394531 320.789062 187.289062 317.265625 180.773438 316.019531 C 180.386719 315.941406 180.027344 316.1875 179.964844 316.550781 C 179.910156 316.929688 180.179688 317.292969 180.554688 317.367188 C 186.34375 318.476562 192.664062 321.464844 197.996094 324.507812 C 198.523438 324.804688 198.429688 325.578125 197.851562 325.660156 C 195.707031 325.984375 193.226562 324.117188 191.265625 323.449219 C 188.261719 322.441406 185.191406 321.488281 182.0625 321.078125 C 181.949219 321.0625 181.835938 321.046875 181.703125 321.039062 C 169.125 319.761719 156.773438 319.421875 144.246094 317.804688 C 134.554688 316.558594 124.769531 317.925781 115.003906 318.648438 L 115.003906 290.972656 C 116.082031 291.292969 117.339844 291.601562 118.835938 291.902344 Z M 82.152344 295.390625 C 81.90625 295.40625 81.65625 295.421875 81.410156 295.441406 C 81.285156 295.417969 81.15625 295.398438 81.042969 295.382812 C 81.417969 295.386719 81.78125 295.375 82.152344 295.390625 Z M 82.152344 295.390625 " fill-opacity="1" fill-rule="nonzero"/><g clip-path="url(#id2)"><path fill="#bbd9f4" d="M 176.964844 322.375 L 348.238281 322.375 C 349.914062 322.375 351.273438 323.734375 351.273438 325.410156 L 351.273438 325.628906 C 351.273438 327.304688 349.914062 328.664062 348.238281 328.664062 L 176.964844 328.664062 C 175.289062 328.664062 173.933594 327.304688 173.933594 325.628906 L 173.933594 325.410156 C 173.933594 323.734375 175.289062 322.375 176.964844 322.375 Z M 176.964844 322.375 " fill-opacity="1" fill-rule="nonzero"/></g><path fill="#ffffff" d="M 207.390625 322.476562 L 342.757812 322.476562 C 346.089844 322.476562 349.492188 319.769531 350.351562 316.425781 L 370.722656 236.257812 C 371.582031 232.917969 369.582031 230.210938 366.25 230.210938 L 230.878906 230.210938 C 227.546875 230.210938 224.148438 232.917969 223.285156 236.257812 L 202.917969 316.425781 C 202.054688 319.769531 204.058594 322.476562 207.390625 322.476562 Z M 207.390625 322.476562 " fill-opacity="1" fill-rule="nonzero"/><path fill="#bbd9f4" d="M 210.625 322.476562 L 345.992188 322.476562 C 349.324219 322.476562 352.726562 319.769531 353.585938 316.425781 L 373.957031 236.257812 C 374.816406 232.917969 372.816406 230.210938 369.480469 230.210938 L 234.113281 230.210938 C 230.78125 230.210938 227.378906 232.917969 226.519531 236.257812 L 206.148438 316.429688 C 205.285156 319.769531 207.289062 322.476562 210.625 322.476562 Z M 210.625 322.476562 " fill-opacity="1" fill-rule="nonzero"/><path fill="#fcfcfb" d="M 284.679688 278.847656 C 284.679688 279.226562 284.714844 279.601562 284.785156 279.972656 C 284.851562 280.34375 284.953125 280.703125 285.089844 281.054688 C 285.222656 281.40625 285.390625 281.738281 285.585938 282.050781 C 285.78125 282.367188 286.003906 282.660156 286.253906 282.925781 C 286.503906 283.195312 286.773438 283.433594 287.066406 283.644531 C 287.359375 283.855469 287.671875 284.03125 287.996094 284.179688 C 288.324219 284.324219 288.660156 284.433594 289.003906 284.507812 C 289.351562 284.582031 289.699219 284.617188 290.054688 284.617188 C 290.40625 284.617188 290.753906 284.582031 291.101562 284.507812 C 291.445312 284.433594 291.78125 284.324219 292.109375 284.179688 C 292.433594 284.03125 292.746094 283.855469 293.039062 283.644531 C 293.332031 283.433594 293.601562 283.195312 293.851562 282.925781 C 294.101562 282.660156 294.324219 282.367188 294.519531 282.050781 C 294.714844 281.738281 294.882812 281.40625 295.015625 281.054688 C 295.152344 280.703125 295.253906 280.34375 295.324219 279.972656 C 295.390625 279.601562 295.425781 279.226562 295.425781 278.847656 C 295.425781 278.46875 295.390625 278.089844 295.324219 277.71875 C 295.253906 277.347656 295.152344 276.988281 295.015625 276.636719 C 294.882812 276.285156 294.714844 275.953125 294.519531 275.640625 C 294.324219 275.324219 294.101562 275.03125 293.851562 274.765625 C 293.601562 274.496094 293.332031 274.257812 293.039062 274.046875 C 292.746094 273.835938 292.433594 273.660156 292.109375 273.511719 C 291.78125 273.367188 291.445312 273.257812 291.101562 273.183594 C 290.753906 273.109375 290.40625 273.074219 290.054688 273.074219 C 289.699219 273.074219 289.351562 273.109375 289.003906 273.183594 C 288.660156 273.257812 288.324219 273.367188 287.996094 273.511719 C 287.671875 273.660156 287.359375 273.835938 287.066406 274.046875 C 286.773438 274.257812 286.503906 274.496094 286.253906 274.765625 C 286.003906 275.03125 285.78125 275.324219 285.585938 275.640625 C 285.390625 275.953125 285.222656 276.285156 285.089844 276.636719 C 284.953125 276.988281 284.851562 277.347656 284.785156 277.71875 C 284.714844 278.089844 284.679688 278.46875 284.679688 278.847656 Z M 284.679688 278.847656 " fill-opacity="1" fill-rule="nonzero"/></svg>